<?xml version="1.0" encoding="utf-8"?>
 <!DOCTYPE svg PUBLIC "-//W3C//DTD SVG 20010904//EN" "http://www.w3.org/TR/2001/REC-SVG-20010904/DTD/svg10.dtd">
<svg class="Qr-item-svg" width="100%" height="100%" viewBox="-5.8 -5.8 40.6 40.6" fill="white" xmlns="http://www.w3.org/2000/svg" xmlns:xlink="http://www.w3.org/1999/xlink"><circle opacity="1" fill="#000000" cx="0.5" cy="9.5" r="0.32099586334019203"></circle><circle opacity="1" fill="#000000" cx="0.5" cy="10.5" r="0.26831751543209875"></circle><circle opacity="1" fill="#000000" cx="0.5" cy="13.5" r="0.41200362225651577"></circle><circle opacity="1" fill="#000000" cx="0.5" cy="14.5" r="0.1864831961591221"></circle><circle opacity="1" fill="#000000" cx="0.5" cy="15.5" r="0.3910000643004115"></circle><circle opacity="1" fill="#000000" cx="0.5" cy="18.5" r="0.4723906464334705"></circle><circle opacity="1" fill="#000000" cx="1.5" cy="8.5" r="0.38619506601508913"></circle><circle opacity="1" fill="#000000" cx="1.5" cy="9.5" r="0.3361015946502057"></circle><circle opacity="1" fill="#000000" cx="1.5" cy="11.5" r="0.4017244298696845"></circle><circle opacity="1" fill="#000000" cx="1.5" cy="12.5" r="0.38971480624142657"></circle><circle opacity="1" fill="#000000" cx="1.5" cy="15.5" r="0.24320543981481482"></circle><circle opacity="1" fill="#000000" cx="1.5" cy="17.5" r="0.3395883058984911"></circle><circle opacity="1" fill="#000000" cx="1.5" cy="20.5" r="0.3366257501714678"></circle><circle opacity="1" fill="#000000" cx="2.5" cy="8.5" r="0.251894933127572"></circle><circle opacity="1" fill="#000000" cx="2.5" cy="11.5" r="0.4255656078532236"></circle><circle fill="#000000" cx="2.5" cy="14.5" r="0.3665112311385459" opacity="1"></circle><circle fill="#000000" cx="2.5" cy="16.5" r="0.1667534079218107" opacity="1"></circle><circle fill="#000000" cx="3.5" cy="3.5" r="1.5"></circle><circle fill="none" cx="3.5" cy="3.5" r="3" stroke-width="0.15" stroke-dasharray="0.5,0.5" stroke="#000000"></circle><circle fill="#000000" cx="6.5" cy="3.5" r="0.5"></circle><circle fill="#000000" cx="0.5" cy="3.5" r="0.5"></circle><circle fill="#000000" cx="3.5" cy="6.5" r="0.5"></circle><circle fill="#000000" cx="3.5" cy="0.5" r="0.5"></circle><circle opacity="1" fill="#000000" cx="3.5" cy="8.5" r="0.46423966906721537"></circle><circle opacity="1" fill="#000000" cx="3.5" cy="9.5" r="0.28395458247599453"></circle><circle opacity="1" fill="#000000" cx="3.5" cy="10.5" r="0.4623641975308642"></circle><circle fill="#000000" cx="3.5" cy="11.5" r="0.2601938228737997" opacity="1"></circle><circle fill="#000000" cx="3.5" cy="14.5" r="0.22853913751714677" opacity="1"></circle><circle fill="#000000" cx="3.5" cy="15.5" r="0.2733106352880659" opacity="1"></circle><circle fill="#000000" cx="3.5" cy="17.5" r="0.28801140260631" opacity="1"></circle><circle fill="#000000" cx="3.5" cy="18.5" r="0.33984822959533606" opacity="1"></circle><circle fill="#000000" cx="3.5" cy="19.5" r="0.409176054526749" opacity="1"></circle><circle opacity="1" fill="#000000" cx="3.5" cy="20.5" r="0.3522757415980795"></circle><circle fill="#000000" cx="3.5" cy="25.5" r="1.5"></circle><circle fill="none" cx="3.5" cy="25.5" r="3" stroke-width="0.15" stroke-dasharray="0.5,0.5" stroke="#000000"></circle><circle fill="#000000" cx="6.5" cy="25.5" r="0.5"></circle><circle fill="#000000" cx="0.5" cy="25.5" r="0.5"></circle><circle fill="#000000" cx="3.5" cy="28.5" r="0.5"></circle><circle fill="#000000" cx="3.5" cy="22.5" r="0.5"></circle><circle opacity="1" fill="#000000" cx="4.5" cy="10.5" r="0.42246519204389577"></circle><circle opacity="1" fill="#000000" cx="4.5" cy="11.5" r="0.3395437885802469"></circle><circle opacity="1" fill="#000000" cx="4.5" cy="12.5" r="0.2575701731824417"></circle><circle opacity="1" fill="#000000" cx="4.5" cy="13.5" r="0.2809733581961591"></circle><circle opacity="1" fill="#000000" cx="4.5" cy="14.5" r="0.203997170781893"></circle><circle opacity="1" fill="#000000" cx="4.5" cy="15.5" r="0.47847803069272976"></circle><circle opacity="1" fill="#000000" cx="4.5" cy="17.5" r="0.3899560613854595"></circle><circle opacity="1" fill="#000000" cx="4.5" cy="18.5" r="0.47711953446502053"></circle><circle opacity="1" fill="#000000" cx="4.5" cy="19.5" r="0.4845826474622771"></circle><circle opacity="1" fill="#000000" cx="4.5" cy="20.5" r="0.21899663494513033"></circle><circle opacity="1" fill="#000000" cx="5.5" cy="9.5" r="0.29349421296296296"></circle><circle opacity="1" fill="#000000" cx="5.5" cy="12.5" r="0.41546735682441704"></circle><circle opacity="1" fill="#000000" cx="5.5" cy="13.5" r="0.24267841220850478"></circle><circle opacity="1" fill="#000000" cx="5.5" cy="14.5" r="0.46270453960905344"></circle><circle opacity="1" fill="#000000" cx="5.5" cy="16.5" r="0.4107154921124828"></circle><circle opacity="1" fill="#000000" cx="5.5" cy="17.5" r="0.2655847265089163"></circle><circle opacity="1" fill="#000000" cx="6.5" cy="8.5" r="0.4"></circle><circle opacity="1" fill="#000000" cx="6.5" cy="10.5" r="0.4"></circle><circle opacity="1" fill="#000000" cx="6.5" cy="12.5" r="0.4"></circle><circle opacity="1" fill="#000000" cx="6.5" cy="14.5" r="0.4"></circle><circle opacity="1" fill="#000000" cx="6.5" cy="16.5" r="0.4"></circle><circle opacity="1" fill="#000000" cx="6.5" cy="18.5" r="0.4"></circle><circle opacity="1" fill="#000000" cx="6.5" cy="20.5" r="0.4"></circle><circle opacity="1" fill="#000000" cx="7.5" cy="8.5" r="0.45433384773662555"></circle><circle opacity="1" fill="#000000" cx="7.5" cy="13.5" r="0.27491038665980794"></circle><circle opacity="1" fill="#000000" cx="7.5" cy="19.5" r="0.4272989111796982"></circle><circle opacity="1" fill="#000000" cx="7.5" cy="20.5" r="0.40796547067901234"></circle><circle opacity="1" fill="#000000" cx="8.5" cy="0.5" r="0.48263537379972565"></circle><circle opacity="1" fill="#000000" cx="8.5" cy="6.5" r="0.4"></circle><circle opacity="1" fill="#000000" cx="8.5" cy="8.5" r="0.19740429955418382"></circle><circle opacity="1" fill="#000000" cx="8.5" cy="9.5" r="0.4631827417695473"></circle><circle opacity="1" fill="#000000" cx="8.5" cy="11.5" r="0.16847378686556927"></circle><circle opacity="1" fill="#000000" cx="8.5" cy="12.5" r="0.38548422496570645"></circle><circle opacity="1" fill="#000000" cx="8.5" cy="14.5" r="0.4245689943415638"></circle><circle opacity="1" fill="#000000" cx="8.5" cy="15.5" r="0.4770089591906721"></circle><circle opacity="1" fill="#000000" cx="8.5" cy="17.5" r="0.46112202074759945"></circle><circle opacity="1" fill="#000000" cx="8.5" cy="19.5" r="0.4317075617283951"></circle><circle opacity="1" fill="#000000" cx="8.5" cy="21.5" r="0.20782422410836762"></circle><circle opacity="1" fill="#000000" cx="8.5" cy="22.5" r="0.22890102023319614"></circle><circle opacity="1" fill="#000000" cx="8.5" cy="25.5" r="0.28918177726337446"></circle><circle opacity="1" fill="#000000" cx="8.5" cy="26.5" r="0.17050291495198902"></circle><circle opacity="1" fill="#000000" cx="8.5" cy="27.5" r="0.49840455675582984"></circle><circle opacity="1" fill="#000000" cx="9.5" cy="1.5" r="0.4715749742798354"></circle><circle opacity="1" fill="#000000" cx="9.5" cy="2.5" r="0.1696283650548697"></circle><circle opacity="1" fill="#000000" cx="9.5" cy="3.5" r="0.404215963648834"></circle><circle opacity="1" fill="#000000" cx="9.5" cy="5.5" r="0.44847048611111107"></circle><circle opacity="1" fill="#000000" cx="9.5" cy="8.5" r="0.34478390775034296"></circle><circle opacity="1" fill="#000000" cx="9.5" cy="12.5" r="0.4209185742455418"></circle><circle opacity="1" fill="#000000" cx="9.5" cy="14.5" r="0.359451646090535"></circle><circle opacity="1" fill="#000000" cx="9.5" cy="19.5" r="0.16555287637174212"></circle><circle opacity="1" fill="#000000" cx="9.5" cy="20.5" r="0.35309572187928673"></circle><circle opacity="1" fill="#000000" cx="9.5" cy="23.5" r="0.3441017875514403"></circle><circle opacity="1" fill="#000000" cx="9.5" cy="24.5" r="0.4415186042524005"></circle><circle opacity="1" fill="#000000" cx="9.5" cy="26.5" r="0.3403307398834019"></circle><circle opacity="1" fill="#000000" cx="9.5" cy="27.5" r="0.20700424382716048"></circle><circle opacity="1" fill="#000000" cx="10.5" cy="3.5" r="0.3072644247256516"></circle><circle opacity="1" fill="#000000" cx="10.5" cy="6.5" r="0.4"></circle><circle opacity="1" fill="#000000" cx="10.5" cy="9.5" r="0.18720696159122086"></circle><circle opacity="1" fill="#000000" cx="10.5" cy="10.5" r="0.42274234825102874"></circle><circle opacity="1" fill="#000000" cx="10.5" cy="18.5" r="0.23737367112482854"></circle><circle opacity="1" fill="#000000" cx="10.5" cy="21.5" r="0.36830772033607684"></circle><circle opacity="1" fill="#000000" cx="10.5" cy="22.5" r="0.4608994341563786"></circle><circle opacity="1" fill="#000000" cx="10.5" cy="23.5" r="0.3714296767832647"></circle><circle opacity="1" fill="#000000" cx="11.5" cy="0.5" r="0.3532163494513031"></circle><circle opacity="1" fill="#000000" cx="11.5" cy="3.5" r="0.4610588348765432"></circle><circle opacity="1" fill="#000000" cx="11.5" cy="5.5" r="0.17901577503429356"></circle><circle opacity="1" fill="#000000" cx="11.5" cy="7.5" r="0.28151618227023323"></circle><circle opacity="1" fill="#000000" cx="11.5" cy="8.5" r="0.22780388374485597"></circle><circle opacity="1" fill="#000000" cx="11.5" cy="9.5" r="0.4697152992112482"></circle><circle opacity="1" fill="#000000" cx="11.5" cy="14.5" r="0.2927905521262003"></circle><circle opacity="1" fill="#000000" cx="11.5" cy="15.5" r="0.2357179140946502"></circle><circle opacity="1" fill="#000000" cx="11.5" cy="16.5" r="0.37811158264746225"></circle><circle opacity="1" fill="#000000" cx="11.5" cy="18.5" r="0.19162279235253774"></circle><circle opacity="1" fill="#000000" cx="11.5" cy="19.5" r="0.28938425925925926"></circle><circle opacity="1" fill="#000000" cx="11.5" cy="24.5" r="0.3787879586762688"></circle><circle opacity="1" fill="#000000" cx="11.5" cy="25.5" r="0.45259623628257883"></circle><circle opacity="1" fill="#000000" cx="12.5" cy="2.5" r="0.19338625257201647"></circle><circle opacity="1" fill="#000000" cx="12.5" cy="6.5" r="0.4"></circle><circle opacity="1" fill="#000000" cx="12.5" cy="8.5" r="0.2763277606310014"></circle><circle opacity="1" fill="#000000" cx="12.5" cy="10.5" r="0.21029421724965708"></circle><circle opacity="1" fill="#000000" cx="12.5" cy="13.5" r="0.42230722736625514"></circle><circle opacity="1" fill="#000000" cx="12.5" cy="14.5" r="0.21031432184499316"></circle><circle opacity="1" fill="#000000" cx="12.5" cy="16.5" r="0.27430006858710565"></circle><circle opacity="1" fill="#000000" cx="12.5" cy="19.5" r="0.44573051697530863"></circle><circle opacity="1" fill="#000000" cx="12.5" cy="20.5" r="0.3203309756515775"></circle><circle opacity="1" fill="#000000" cx="12.5" cy="21.5" r="0.4491971236282579"></circle><circle opacity="1" fill="#000000" cx="12.5" cy="22.5" r="0.40323945473251027"></circle><circle opacity="1" fill="#000000" cx="12.5" cy="28.5" r="0.4109610553840878"></circle><circle opacity="1" fill="#000000" cx="13.5" cy="1.5" r="0.2045687157064472"></circle><circle opacity="1" fill="#000000" cx="13.5" cy="3.5" r="0.4344173739711934"></circle><circle opacity="1" fill="#000000" cx="13.5" cy="4.5" r="0.28678789437585733"></circle><circle opacity="1" fill="#000000" cx="13.5" cy="5.5" r="0.34999817815500683"></circle><circle opacity="1" fill="#000000" cx="13.5" cy="9.5" r="0.34384760802469133"></circle><circle opacity="1" fill="#000000" cx="13.5" cy="10.5" r="0.4223948259602195"></circle><circle opacity="1" fill="#000000" cx="13.5" cy="12.5" r="0.35506884430727026"></circle><circle opacity="1" fill="#000000" cx="13.5" cy="13.5" r="0.27111349022633746"></circle><circle opacity="1" fill="#000000" cx="13.5" cy="14.5" r="0.28736518347050755"></circle><circle opacity="1" fill="#000000" cx="13.5" cy="17.5" r="0.3593640474965706"></circle><circle opacity="1" fill="#000000" cx="13.5" cy="18.5" r="0.355798353909465"></circle><circle opacity="1" fill="#000000" cx="13.5" cy="19.5" r="0.35628230024005486"></circle><circle opacity="1" fill="#000000" cx="13.5" cy="20.5" r="0.16746712105624142"></circle><circle opacity="1" fill="#000000" cx="13.5" cy="22.5" r="0.4024855324074074"></circle><circle opacity="1" fill="#000000" cx="13.5" cy="23.5" r="0.4337295096021948"></circle><circle opacity="1" fill="#000000" cx="13.5" cy="24.5" r="0.25396139831961595"></circle><circle opacity="1" fill="#000000" cx="13.5" cy="27.5" r="0.21575835905349794"></circle><circle opacity="1" fill="#000000" cx="13.5" cy="28.5" r="0.32429014489026065"></circle><circle opacity="1" fill="#000000" cx="14.5" cy="0.5" r="0.42343021262002745"></circle><circle opacity="1" fill="#000000" cx="14.5" cy="1.5" r="0.27020016718106993"></circle><circle opacity="1" fill="#000000" cx="14.5" cy="4.5" r="0.16754753943758574"></circle><circle opacity="1" fill="#000000" cx="14.5" cy="5.5" r="0.4804568972908093"></circle><circle opacity="1" fill="#000000" cx="14.5" cy="6.5" r="0.4"></circle><circle opacity="1" fill="#000000" cx="14.5" cy="8.5" r="0.37039429012345676"></circle><circle opacity="1" fill="#000000" cx="14.5" cy="11.5" r="0.4380850265775035"></circle><circle opacity="1" fill="#000000" cx="14.5" cy="13.5" r="0.22962478566529493"></circle><circle opacity="1" fill="#000000" cx="14.5" cy="14.5" r="0.32092406121399175"></circle><circle opacity="1" fill="#000000" cx="14.5" cy="15.5" r="0.27048593964334705"></circle><circle opacity="1" fill="#000000" cx="14.5" cy="16.5" r="0.48051721107681755"></circle><circle opacity="1" fill="#000000" cx="14.5" cy="17.5" r="0.26137281378600824"></circle><circle opacity="1" fill="#000000" cx="14.5" cy="20.5" r="0.4743336119684499"></circle><circle opacity="1" fill="#000000" cx="14.5" cy="22.5" r="0.3677175068587105"></circle><circle opacity="1" fill="#000000" cx="14.5" cy="23.5" r="0.3313238811728395"></circle><circle opacity="1" fill="#000000" cx="14.5" cy="24.5" r="0.18421137688614542"></circle><circle opacity="1" fill="#000000" cx="14.5" cy="25.5" r="0.36580900634430724"></circle><circle opacity="1" fill="#000000" cx="14.5" cy="26.5" r="0.3353605967078189"></circle><circle opacity="1" fill="#000000" cx="15.5" cy="2.5" r="0.2097025677297668"></circle><circle opacity="1" fill="#000000" cx="15.5" cy="3.5" r="0.27937504286694104"></circle><circle opacity="1" fill="#000000" cx="15.5" cy="8.5" r="0.41306629372427983"></circle><circle opacity="1" fill="#000000" cx="15.5" cy="11.5" r="0.35539051783264747"></circle><circle opacity="1" fill="#000000" cx="15.5" cy="12.5" r="0.24799894975994513"></circle><circle opacity="1" fill="#000000" cx="15.5" cy="13.5" r="0.36902430555555554"></circle><circle opacity="1" fill="#000000" cx="15.5" cy="14.5" r="0.42585856052812066"></circle><circle opacity="1" fill="#000000" cx="15.5" cy="15.5" r="0.41126406035665297"></circle><circle opacity="1" fill="#000000" cx="15.5" cy="23.5" r="0.34281796553497945"></circle><circle opacity="1" fill="#000000" cx="15.5" cy="26.5" r="0.22569002914951988"></circle><circle opacity="1" fill="#000000" cx="15.5" cy="28.5" r="0.2387537079903978"></circle><circle opacity="1" fill="#000000" cx="16.5" cy="2.5" r="0.47403060699588473"></circle><circle opacity="1" fill="#000000" cx="16.5" cy="5.5" r="0.2294682570301783"></circle><circle opacity="1" fill="#000000" cx="16.5" cy="6.5" r="0.4"></circle><circle opacity="1" fill="#000000" cx="16.5" cy="7.5" r="0.20505122599451303"></circle><circle opacity="1" fill="#000000" cx="16.5" cy="8.5" r="0.23224556327160495"></circle><circle opacity="1" fill="#000000" cx="16.5" cy="9.5" r="0.24177657750342935"></circle><circle opacity="1" fill="#000000" cx="16.5" cy="11.5" r="0.44973994770233194"></circle><circle opacity="1" fill="#000000" cx="16.5" cy="12.5" r="0.4270461676954732"></circle><circle opacity="1" fill="#000000" cx="16.5" cy="14.5" r="0.4021983239026063"></circle><circle opacity="1" fill="#000000" cx="16.5" cy="17.5" r="0.4424032064471879"></circle><circle opacity="1" fill="#000000" cx="16.5" cy="20.5" r="0.19301575360082304"></circle><circle opacity="1" fill="#000000" cx="16.5" cy="25.5" r="0.18031682956104253"></circle><circle opacity="1" fill="#000000" cx="16.5" cy="26.5" r="0.32262433556241427"></circle><circle opacity="1" fill="#000000" cx="17.5" cy="0.5" r="0.3397376543209876"></circle><circle opacity="1" fill="#000000" cx="17.5" cy="1.5" r="0.3857154278120713"></circle><circle opacity="1" fill="#000000" cx="17.5" cy="3.5" r="0.2299866683813443"></circle><circle opacity="1" fill="#000000" cx="17.5" cy="4.5" r="0.3367952031893004"></circle><circle fill="#000000" cx="17.5" cy="5.5" r="0.487977451989026" opacity="1"></circle><circle fill="#000000" cx="17.5" cy="7.5" r="0.30407353823731137" opacity="1"></circle><circle fill="#000000" cx="17.5" cy="8.5" r="0.3237717335390946" opacity="1"></circle><circle fill="#000000" cx="17.5" cy="9.5" r="0.2916862354252401" opacity="1"></circle><circle fill="#000000" cx="17.5" cy="11.5" r="0.3494682784636488" opacity="1"></circle><circle fill="#000000" cx="17.5" cy="12.5" r="0.44025057870370365" opacity="1"></circle><circle opacity="1" fill="#000000" cx="17.5" cy="15.5" r="0.27142511145404663"></circle><circle opacity="1" fill="#000000" cx="17.5" cy="16.5" r="0.17075422239368998"></circle><circle opacity="1" fill="#000000" cx="17.5" cy="19.5" r="0.4908150720164609"></circle><circle opacity="1" fill="#000000" cx="17.5" cy="20.5" r="0.23177741340877916"></circle><circle opacity="1" fill="#000000" cx="17.5" cy="22.5" r="0.2425147033607682"></circle><circle opacity="1" fill="#000000" cx="17.5" cy="24.5" r="0.2800485468106996"></circle><circle opacity="1" fill="#000000" cx="17.5" cy="26.5" r="0.3123264746227709"></circle><circle opacity="1" fill="#000000" cx="17.5" cy="27.5" r="0.3693330546982167"></circle><circle opacity="1" fill="#000000" cx="17.5" cy="28.5" r="0.28253433641975306"></circle><circle opacity="1" fill="#000000" cx="18.5" cy="0.5" r="0.31765562842935524"></circle><circle opacity="1" fill="#000000" cx="18.5" cy="1.5" r="0.355792609739369"></circle><circle opacity="1" fill="#000000" cx="18.5" cy="2.5" r="0.30285577417695475"></circle><circle opacity="1" fill="#000000" cx="18.5" cy="3.5" r="0.38734820816186555"></circle><circle opacity="1" fill="#000000" cx="18.5" cy="6.5" r="0.4"></circle><circle opacity="1" fill="#000000" cx="18.5" cy="7.5" r="0.3414767018175583"></circle><circle opacity="1" fill="#000000" cx="18.5" cy="9.5" r="0.48059619341563786"></circle><circle opacity="1" fill="#000000" cx="18.5" cy="10.5" r="0.3259875471536351"></circle><circle opacity="1" fill="#000000" cx="18.5" cy="12.5" r="0.46596866426611794"></circle><circle opacity="1" fill="#000000" cx="18.5" cy="13.5" r="0.2853389274691358"></circle><circle opacity="1" fill="#000000" cx="18.5" cy="14.5" r="0.27315697873799727"></circle><circle opacity="1" fill="#000000" cx="18.5" cy="15.5" r="0.19885183041838134"></circle><circle opacity="1" fill="#000000" cx="18.5" cy="18.5" r="0.1916673096707819"></circle><circle opacity="1" fill="#000000" cx="18.5" cy="19.5" r="0.3684398362482853"></circle><circle opacity="1" fill="#000000" cx="18.5" cy="20.5" r="0.34970953360768176"></circle><circle opacity="1" fill="#000000" cx="18.5" cy="22.5" r="0.33916467335390943"></circle><circle opacity="1" fill="#000000" cx="18.5" cy="23.5" r="0.4164194530178327"></circle><circle opacity="1" fill="#000000" cx="18.5" cy="24.5" r="0.3881251071673525"></circle><circle opacity="1" fill="#000000" cx="18.5" cy="25.5" r="0.19741435185185185"></circle><circle opacity="1" fill="#000000" cx="18.5" cy="28.5" r="0.22167916237997257"></circle><circle opacity="1" fill="#000000" cx="19.5" cy="0.5" r="0.453681884430727"></circle><circle opacity="1" fill="#000000" cx="19.5" cy="3.5" r="0.2409996784979424"></circle><circle opacity="1" fill="#000000" cx="19.5" cy="5.5" r="0.2588022976680384"></circle><circle opacity="1" fill="#000000" cx="19.5" cy="7.5" r="0.3509631987311385"></circle><circle opacity="1" fill="#000000" cx="19.5" cy="8.5" r="0.2745039866255144"></circle><circle opacity="1" fill="#000000" cx="19.5" cy="10.5" r="0.3323721922153635"></circle><circle opacity="1" fill="#000000" cx="19.5" cy="11.5" r="0.21955238340192043"></circle><circle opacity="1" fill="#000000" cx="19.5" cy="14.5" r="0.4375106095679012"></circle><circle opacity="1" fill="#000000" cx="19.5" cy="18.5" r="0.2469721793552812"></circle><circle opacity="1" fill="#000000" cx="19.5" cy="21.5" r="0.19903277177640605"></circle><circle opacity="1" fill="#000000" cx="19.5" cy="22.5" r="0.19960288065843623"></circle><circle opacity="1" fill="#000000" cx="20.5" cy="0.5" r="0.4771855924211248"></circle><circle opacity="1" fill="#000000" cx="20.5" cy="3.5" r="0.4289876971879286"></circle><circle opacity="1" fill="#000000" cx="20.5" cy="6.5" r="0.4"></circle><circle opacity="1" fill="#000000" cx="20.5" cy="12.5" r="0.37036413323045264"></circle><circle opacity="1" fill="#000000" cx="20.5" cy="17.5" r="0.4925957647462277"></circle><circle opacity="1" fill="#000000" cx="20.5" cy="19.5" r="0.37900049296982163"></circle><circle opacity="1" fill="#000000" cx="20.5" cy="20.5" r="0.4"></circle><circle opacity="1" fill="#000000" cx="20.5" cy="21.5" r="0.4"></circle><circle opacity="1" fill="#000000" cx="20.5" cy="22.5" r="0.4"></circle><circle opacity="1" fill="#000000" cx="20.5" cy="23.5" r="0.4"></circle><circle opacity="1" fill="#000000" cx="20.5" cy="24.5" r="0.4"></circle><circle opacity="1" fill="#000000" cx="20.5" cy="26.5" r="0.41937770061728397"></circle><circle opacity="1" fill="#000000" cx="20.5" cy="27.5" r="0.4327860296639232"></circle><circle opacity="1" fill="#000000" cx="20.5" cy="28.5" r="0.18865449245541838"></circle><circle opacity="1" fill="#000000" cx="21.5" cy="8.5" r="0.4862269161522633"></circle><circle opacity="1" fill="#000000" cx="21.5" cy="13.5" r="0.43733972050754455"></circle><circle opacity="1" fill="#000000" cx="21.5" cy="15.5" r="0.33253302897805215"></circle><circle opacity="1" fill="#000000" cx="21.5" cy="20.5" r="0.4"></circle><circle opacity="1" fill="#000000" cx="21.5" cy="24.5" r="0.4"></circle><circle opacity="1" fill="#000000" cx="21.5" cy="25.5" r="0.3754951131687243"></circle><circle opacity="1" fill="#000000" cx="22.5" cy="9.5" r="0.31084017061042524"></circle><circle opacity="1" fill="#000000" cx="22.5" cy="10.5" r="0.28021943587105624"></circle><circle opacity="1" fill="#000000" cx="22.5" cy="12.5" r="0.226765625"></circle><circle opacity="1" fill="#000000" cx="22.5" cy="13.5" r="0.1928707133058985"></circle><circle opacity="1" fill="#000000" cx="22.5" cy="14.5" r="0.17129704646776406"></circle><circle opacity="1" fill="#000000" cx="22.5" cy="15.5" r="0.17962178497942388"></circle><circle opacity="1" fill="#000000" cx="22.5" cy="19.5" r="0.22301468192729768"></circle><circle opacity="1" fill="#000000" cx="22.5" cy="20.5" r="0.4"></circle><circle opacity="1" fill="#000000" cx="22.5" cy="22.5" r="0.4"></circle><circle opacity="1" fill="#000000" cx="22.5" cy="24.5" r="0.4"></circle><circle opacity="1" fill="#000000" cx="22.5" cy="25.5" r="0.4803491941015089"></circle><circle opacity="1" fill="#000000" cx="22.5" cy="26.5" r="0.3736469264403292"></circle><circle opacity="1" fill="#000000" cx="23.5" cy="9.5" r="0.2058554098079561"></circle><circle opacity="1" fill="#000000" cx="23.5" cy="11.5" r="0.34195921210562413"></circle><circle opacity="1" fill="#000000" cx="23.5" cy="13.5" r="0.27842438271604936"></circle><circle opacity="1" fill="#000000" cx="23.5" cy="16.5" r="0.2809762302812071"></circle><circle opacity="1" fill="#000000" cx="23.5" cy="18.5" r="0.23071043381344308"></circle><circle opacity="1" fill="#000000" cx="23.5" cy="19.5" r="0.3685374871399177"></circle><circle opacity="1" fill="#000000" cx="23.5" cy="20.5" r="0.4"></circle><circle opacity="1" fill="#000000" cx="23.5" cy="24.5" r="0.4"></circle><circle opacity="1" fill="#000000" cx="23.5" cy="27.5" r="0.25296047668038407"></circle><circle opacity="1" fill="#000000" cx="24.5" cy="10.5" r="0.286186192558299"></circle><circle opacity="1" fill="#000000" cx="24.5" cy="12.5" r="0.44856957304526746"></circle><circle opacity="1" fill="#000000" cx="24.5" cy="13.5" r="0.2613914823388203"></circle><circle opacity="1" fill="#000000" cx="24.5" cy="16.5" r="0.3129698216735254"></circle><circle opacity="1" fill="#000000" cx="24.5" cy="19.5" r="0.3231039737654321"></circle><circle opacity="1" fill="#000000" cx="24.5" cy="20.5" r="0.4"></circle><circle opacity="1" fill="#000000" cx="24.5" cy="21.5" r="0.4"></circle><circle opacity="1" fill="#000000" cx="24.5" cy="22.5" r="0.4"></circle><circle opacity="1" fill="#000000" cx="24.5" cy="23.5" r="0.4"></circle><circle opacity="1" fill="#000000" cx="24.5" cy="24.5" r="0.4"></circle><circle opacity="1" fill="#000000" cx="24.5" cy="25.5" r="0.4458525805898491"></circle><circle opacity="1" fill="#000000" cx="24.5" cy="27.5" r="0.4506446544924554"></circle><circle opacity="1" fill="#000000" cx="24.5" cy="28.5" r="0.4667240226337448"></circle><circle fill="#000000" cx="25.5" cy="3.5" r="1.5"></circle><circle fill="none" stroke-width="0.15" stroke-dasharray="0.5,0.5" stroke="#000000" cx="25.5" cy="3.5" r="3"></circle><circle fill="#000000" cx="28.5" cy="3.5" r="0.5"></circle><circle fill="#000000" cx="22.5" cy="3.5" r="0.5"></circle><circle fill="#000000" cx="25.5" cy="6.5" r="0.5"></circle><circle fill="#000000" cx="25.5" cy="0.5" r="0.5"></circle><circle opacity="1" fill="#000000" cx="25.5" cy="10.5" r="0.2759271047668038"></circle><circle opacity="1" fill="#000000" cx="25.5" cy="11.5" r="0.1687940243484225"></circle><circle opacity="1" fill="#000000" cx="25.5" cy="12.5" r="0.3490130529835391"></circle><circle opacity="1" fill="#000000" cx="25.5" cy="13.5" r="0.22619838820301783"></circle><circle opacity="1" fill="#000000" cx="25.5" cy="15.5" r="0.27700126457475993"></circle><circle opacity="1" fill="#000000" cx="25.5" cy="16.5" r="0.4445543981481481"></circle><circle opacity="1" fill="#000000" cx="25.5" cy="18.5" r="0.4362497642318244"></circle><circle opacity="1" fill="#000000" cx="25.5" cy="21.5" r="0.2448497085048011"></circle><circle opacity="1" fill="#000000" cx="25.5" cy="23.5" r="0.22293139146090535"></circle><circle opacity="1" fill="#000000" cx="25.5" cy="25.5" r="0.37566456618655697"></circle><circle opacity="1" fill="#000000" cx="25.5" cy="26.5" r="0.21192268947187928"></circle><circle opacity="1" fill="#000000" cx="25.5" cy="28.5" r="0.493727366255144"></circle><circle opacity="1" fill="#000000" cx="26.5" cy="10.5" r="0.1840261274005487"></circle><circle opacity="1" fill="#000000" cx="26.5" cy="11.5" r="0.3178035408093278"></circle><circle opacity="1" fill="#000000" cx="26.5" cy="14.5" r="0.3915256558641975"></circle><circle opacity="1" fill="#000000" cx="26.5" cy="15.5" r="0.33591778120713306"></circle><circle opacity="1" fill="#000000" cx="26.5" cy="16.5" r="0.3670755958504801"></circle><circle opacity="1" fill="#000000" cx="26.5" cy="17.5" r="0.3909095936213992"></circle><circle opacity="1" fill="#000000" cx="26.5" cy="19.5" r="0.3009228609396434"></circle><circle opacity="1" fill="#000000" cx="26.5" cy="21.5" r="0.49932218792866945"></circle><circle opacity="1" fill="#000000" cx="26.5" cy="22.5" r="0.2964625128600823"></circle><circle opacity="1" fill="#000000" cx="26.5" cy="23.5" r="0.2186246999314129"></circle><circle opacity="1" fill="#000000" cx="26.5" cy="24.5" r="0.18412665037722908"></circle><circle opacity="1" fill="#000000" cx="26.5" cy="25.5" r="0.24776774691358025"></circle><circle opacity="1" fill="#000000" cx="26.5" cy="26.5" r="0.22860663151577504"></circle><circle opacity="1" fill="#000000" cx="26.5" cy="27.5" r="0.23107231652949245"></circle><circle opacity="1" fill="#000000" cx="27.5" cy="9.5" r="0.38440862911522633"></circle><circle opacity="1" fill="#000000" cx="27.5" cy="10.5" r="0.4704519890260631"></circle><circle opacity="1" fill="#000000" cx="27.5" cy="13.5" r="0.44474251971879286"></circle><circle opacity="1" fill="#000000" cx="27.5" cy="15.5" r="0.17596849279835391"></circle><circle opacity="1" fill="#000000" cx="27.5" cy="18.5" r="0.4137441057956104"></circle><circle opacity="1" fill="#000000" cx="27.5" cy="19.5" r="0.29472059327846367"></circle><circle opacity="1" fill="#000000" cx="27.5" cy="23.5" r="0.43203067129629624"></circle><circle opacity="1" fill="#000000" cx="27.5" cy="24.5" r="0.19806631515775036"></circle><circle opacity="1" fill="#000000" cx="27.5" cy="25.5" r="0.2555898705418381"></circle><circle opacity="1" fill="#000000" cx="27.5" cy="26.5" r="0.2871784979423868"></circle><circle opacity="1" fill="#000000" cx="27.5" cy="28.5" r="0.2980019504458162"></circle><circle opacity="1" fill="#000000" cx="28.5" cy="8.5" r="0.4669336848422496"></circle><circle opacity="1" fill="#000000" cx="28.5" cy="10.5" r="0.21599530606995884"></circle><circle opacity="1" fill="#000000" cx="28.5" cy="11.5" r="0.1831343449931413"></circle><circle opacity="1" fill="#000000" cx="28.5" cy="12.5" r="0.3983353695130315"></circle><circle opacity="1" fill="#000000" cx="28.5" cy="13.5" r="0.3580644290123457"></circle><circle opacity="1" fill="#000000" cx="28.5" cy="14.5" r="0.32804683213305896"></circle><circle opacity="1" fill="#000000" cx="28.5" cy="17.5" r="0.18937825788751717"></circle><circle opacity="1" fill="#000000" cx="28.5" cy="19.5" r="0.18296920010288067"></circle><circle opacity="1" fill="#000000" cx="28.5" cy="24.5" r="0.20232274519890261"></circle><circle opacity="1" fill="#000000" cx="28.5" cy="26.5" r="0.31464568329903975"></circle></svg>